PathFileType	4	(X/Y/Z)	s09c0202.trc
DataRate	CameraRate	NumFrames	NumMarkers	Units	OrigDataRate	OrigDataStartFrame	OrigNumFrames
200	200	7	50	mm	200	1250	2000
Frame#	Time	racr			lacr			c7			jug			rlel			rdr			llel			ldr			s2			lic			ric			lasi			rasi			rpsi			lpsi			rgt			lgt			rth1			rth2			rth3			rth4			rlfc			rmfc			rsh1			rsh2			rsh3			rsh4			rlmal			rmmal			rcal			rtoe			rmt5			lth1			lth2			lth4			lth3			llfc			lmfc			llmal			lmmal			lcal			lmt5			lsh1			lsh2			lsh3			lsh4			ltoe			SBIKE			LBIKE			RBIKE			
		X1	Y1	Z1	X2	Y2	Z2	X3	Y3	Z3	X4	Y4	Z4	X5	Y5	Z5	X6	Y6	Z6	X7	Y7	Z7	X8	Y8	Z8	X9	Y9	Z9	X10	Y10	Z10	X11	Y11	Z11	X12	Y12	Z12	X13	Y13	Z13	X14	Y14	Z14	X15	Y15	Z15	X16	Y16	Z16	X17	Y17	Z17	X18	Y18	Z18	X19	Y19	Z19	X20	Y20	Z20	X21	Y21	Z21	X22	Y22	Z22	X23	Y23	Z23	X24	Y24	Z24	X25	Y25	Z25	X26	Y26	Z26	X27	Y27	Z27	X28	Y28	Z28	X29	Y29	Z29	X30	Y30	Z30	X31	Y31	Z31	X32	Y32	Z32	X33	Y33	Z33	X34	Y34	Z34	X35	Y35	Z35	X36	Y36	Z36	X37	Y37	Z37	X38	Y38	Z38	X39	Y39	Z39	X40	Y40	Z40	X41	Y41	Z41	X42	Y42	Z42	X43	Y43	Z43	X44	Y44	Z44	X45	Y45	Z45	X46	Y46	Z46	X47	Y47	Z47	X48	Y48	Z48	X49	Y49	Z49	X50	Y50	Z50	
1250	6.2500	505.157433	1244.273204	-73.985639	464.078331	1229.591093	-442.102540	479.527004	1321.719548	-257.084649	467.594110	1186.988794	-252.246132	478.538786	1019.456866	50.918417	678.210024	906.081326	-39.307169	430.603347	978.639573	-566.238568	660.490462	909.576208	-476.979404	5.744297	1117.974882	-189.584897	123.591472	1144.799092	-354.382955	155.686950	1108.407073	-55.153599	176.612254	1095.449058	-334.095835	198.834386	1061.955738	-85.404411	39.074598	1143.241726	-131.103487	24.325574	1161.272371	-237.830992	131.305388	957.607250	-24.092895	122.942678	1045.308957	-400.238474	203.062719	845.941275	-34.362174	263.817085	782.092939	-42.850948	278.180938	695.322334	-57.408484	291.857700	796.947877	-62.188863	311.859845	608.339987	-91.552209	296.650402	590.678570	-189.709407	270.318951	516.619991	-60.442033	274.771314	427.966861	-74.184961	234.516448	350.060745	-73.957956	299.549701	426.048091	-105.048128	206.866616	251.223072	-73.479643	207.900451	260.942344	-149.015713	124.439051	243.454706	-112.737093	366.813519	131.610970	-131.405269	288.382881	147.323622	-62.157640	256.615974	1007.289226	-388.966882	340.003200	1003.591434	-372.691863	347.543137	1030.739041	-346.181853	417.976628	957.886881	-375.417497	496.385381	893.199137	-359.935139	503.039945	864.385423	-259.128795	262.825656	610.222039	-405.748841	273.864733	610.130728	-330.402152	178.378866	598.687553	-371.051562	320.101955	496.347481	-430.375446	438.293560	817.389240	-389.002681	399.586079	739.418899	-390.309779	325.635172	690.367913	-398.203605	419.942431	721.352900	-363.452969	411.227587	477.934044	-361.495800	-64.463903	852.551830	-237.109114	21.079088	85.411861	-442.074129	21.138083	84.115188	-43.666260	
1251	6.2550	507.017313	1242.063807	-76.303157	460.877179	1230.352823	-444.395039	480.146763	1320.842357	-258.334888	466.964210	1186.069869	-254.534844	479.268344	1018.561819	50.619667	678.904933	906.340682	-39.012604	429.882610	978.587023	-566.316255	659.305641	909.687314	-475.821171	5.783850	1119.233151	-187.248891	122.056659	1147.416987	-352.357188	157.173950	1108.965094	-54.041292	175.027117	1097.469989	-333.026944	199.812667	1062.288411	-84.503204	39.843074	1144.215058	-128.882241	24.224090	1163.070294	-235.033051	131.644304	958.335134	-23.684148	121.542407	1049.438799	-399.263931	204.155065	846.703284	-34.420902	265.318031	783.311593	-42.865829	280.147474	696.810080	-57.846285	293.422714	798.480374	-61.864410	313.925464	609.228230	-92.153257	298.973463	591.903663	-190.207444	271.092182	518.341593	-60.945137	272.989106	429.735328	-74.796823	230.663487	352.896134	-74.231583	297.352303	427.022227	-105.942249	200.941220	255.509952	-73.218707	201.430626	264.058652	-149.182753	118.332023	249.084998	-112.927661	356.533024	130.143662	-131.480356	278.636595	148.648232	-62.146971	255.308201	1010.748765	-388.155141	338.749871	1006.310565	-371.928330	346.420631	1033.074538	-345.116935	416.472371	960.078634	-375.269117	495.142680	895.031989	-360.132393	501.480207	867.021656	-259.075467	268.250490	606.553588	-405.877023	279.010291	606.685668	-330.685550	184.007073	591.777504	-371.136334	329.431455	495.020983	-430.737176	438.300458	818.030087	-389.194973	401.631394	739.239304	-390.504985	328.919036	688.477663	-398.382507	422.487024	721.596049	-363.589889	421.018230	480.241528	-361.748871	-64.437255	852.608068	-236.941649	21.036039	85.488163	-442.005230	21.117596	84.137568	-43.664755	
1252	6.2600	508.622099	1239.690328	-78.628758	457.980550	1231.211672	-446.656295	480.632375	1319.661846	-259.888341	466.200814	1185.123905	-256.693348	479.783833	1017.784609	50.285072	679.605765	906.592045	-38.533963	429.031888	978.553046	-566.360336	657.993765	909.736585	-474.535301	7.720045	1119.900735	-185.794604	120.961458	1150.074691	-350.586622	158.732615	1109.738440	-52.722862	173.445069	1099.492834	-332.027179	200.600235	1062.761793	-83.618737	40.413659	1145.321187	-127.555521	24.147910	1165.147727	-232.457343	131.921391	959.126309	-23.459537	120.225064	1053.770316	-398.282814	205.562199	847.638248	-34.617810	267.249142	784.738188	-43.040009	282.889541	698.468031	-58.345758	295.316829	800.081957	-61.542408	316.591489	610.353644	-92.863970	301.663857	593.333046	-190.781691	272.237072	520.466302	-61.591980	271.455609	431.661117	-75.576575	227.052404	356.190145	-74.542878	295.517776	428.589960	-106.889155	194.776995	259.833097	-72.960276	195.225917	267.547586	-149.243141	112.772702	255.330673	-113.145918	346.236564	129.626054	-131.355719	269.026243	150.602004	-62.163718	254.055045	1013.536876	-387.596268	337.415141	1008.141572	-371.505003	345.377000	1034.693454	-344.481866	414.699845	961.502989	-375.435224	493.815342	895.529690	-360.854571	499.720350	868.362043	-259.626659	273.315799	601.695315	-406.006081	284.157797	602.593256	-330.948757	189.544353	584.286313	-371.597677	338.599916	492.805230	-431.008317	438.236636	817.662216	-389.539655	403.445203	737.927959	-390.977009	332.056042	685.486181	-398.629104	424.832828	720.889399	-364.105695	430.886022	481.997531	-361.348069	-64.402448	852.657567	-236.759319	21.016945	85.598220	-441.977844	21.130101	84.142662	-43.643072	
1253	6.2650	510.067784	1237.330386	-80.907874	455.576785	1231.530909	-447.899677	481.718897	1318.081622	-261.412771	465.289440	1184.306179	-258.667614	480.129176	1016.847729	49.793011	680.167017	906.735088	-37.891043	428.189105	978.603241	-566.323739	656.582852	909.797174	-473.133522	8.359589	1121.839838	-183.646733	119.792006	1152.764189	-348.739829	159.803119	1110.425010	-51.867153	172.051506	1101.385614	-331.053233	201.401128	1063.415812	-82.797471	41.063855	1146.456716	-125.766860	24.188041	1166.980999	-230.255631	132.117604	960.089321	-23.041929	119.112988	1057.808725	-397.152323	207.306616	848.610867	-34.921192	269.540247	786.362186	-43.337900	286.092487	700.276299	-58.955236	297.635220	802.182859	-61.381024	319.822024	611.601865	-93.755544	304.437404	595.051255	-191.613622	273.790822	522.848200	-62.296254	270.254162	434.144662	-76.323145	223.683446	360.002979	-74.804527	293.778159	430.338456	-107.936954	188.985992	264.778059	-72.914314	190.776479	272.795022	-150.000614	106.587698	262.448215	-113.138130	336.082389	129.799764	-131.177872	259.549003	153.040211	-62.168280	252.695020	1015.574192	-387.325287	335.963942	1009.266558	-371.693438	344.360633	1035.510012	-344.260349	412.904369	961.883518	-375.968222	492.631001	895.283139	-361.833599	498.019935	868.507712	-260.627737	278.333591	595.980358	-406.315525	289.351027	597.498840	-331.050823	195.016267	575.740772	-371.966976	347.470558	489.945241	-431.375523	437.925841	816.232460	-390.273751	405.086845	735.552883	-391.766702	334.897968	681.425550	-399.135017	426.516287	718.709661	-364.075303	440.111484	482.965560	-361.512804	-64.368460	852.689148	-236.591718	21.035774	85.696270	-441.923532	21.157868	84.149272	-43.602704	
1254	6.2700	511.295218	1234.824582	-83.129528	453.477827	1231.142599	-448.476173	482.360576	1316.811868	-262.500174	464.195258	1183.462122	-260.522172	480.198669	1016.126875	49.311094	680.507699	906.876910	-37.091774	427.078400	978.717439	-566.166774	655.133174	909.841525	-471.707091	8.413237	1123.671194	-181.742696	118.994005	1155.243974	-347.152192	160.787150	1111.025663	-51.002940	170.819472	1103.175982	-330.129380	202.137096	1064.141748	-82.073280	41.731174	1147.569821	-124.171402	24.575187	1168.718278	-228.699794	132.497862	960.985632	-22.933481	118.171415	1061.544646	-395.864667	209.209011	849.777409	-35.426695	272.088986	788.187521	-43.748072	289.679904	702.463174	-59.692364	300.180354	804.420170	-61.404521	323.522342	613.042905	-94.825723	307.341975	597.108012	-192.581952	275.711050	525.501411	-63.074185	269.648419	437.096617	-76.888937	220.621936	364.237583	-75.111350	292.036709	432.489606	-109.727199	182.962482	269.676244	-72.982881	184.336715	277.416942	-150.130041	100.635269	269.633957	-113.158906	326.022856	130.584246	-131.022662	250.273706	156.256866	-62.150506	251.278182	1016.507377	-387.134447	334.380412	1009.448131	-372.140057	343.425397	1035.471641	-344.643377	411.081996	961.362783	-377.031290	491.356989	893.843402	-363.338708	496.519477	867.500433	-262.305653	283.370965	589.457701	-406.686612	294.082031	591.416642	-331.409306	200.216089	566.343225	-372.578482	356.371920	486.118072	-431.423592	437.509633	813.600204	-391.549962	406.835703	732.240840	-393.425053	337.691007	676.305906	-399.924878	428.103993	715.744414	-364.169510	449.043672	483.362122	-361.675504	-64.348435	852.727646	-236.467488	21.058272	85.749827	-441.901281	21.192664	84.155405	-43.557304	
1255	6.2750	512.327052	1232.335634	-85.398810	451.603728	1231.191373	-449.543305	483.166937	1315.021736	-264.837378	462.935466	1182.681778	-262.118753	479.972087	1015.423988	48.812056	680.956776	906.802808	-36.284831	426.162025	978.831541	-566.181071	653.534767	909.700320	-469.944732	8.376265	1124.620975	-180.562247	118.297400	1157.759442	-345.496246	161.526579	1111.603161	-50.174973	169.774942	1104.849910	-329.355462	202.900987	1064.862714	-81.438653	42.214018	1148.882088	-122.600372	24.856994	1170.387869	-226.544191	132.939094	961.809318	-22.874386	117.326088	1064.819870	-394.369207	211.341011	850.975347	-36.000948	274.945844	790.215416	-44.295737	293.937238	704.474348	-60.421481	302.958430	806.748199	-61.523724	327.743273	614.588142	-95.944072	310.342224	599.322529	-193.661658	277.849334	528.434373	-63.971071	268.785728	440.129248	-77.956124	217.757985	368.968321	-75.479198	290.818767	435.029013	-110.898153	177.247777	275.207894	-73.046802	178.579200	282.581520	-150.353167	95.034927	277.396293	-113.129966	316.158744	132.077219	-130.829998	241.211702	160.038207	-62.157207	249.812360	1016.374121	-387.115294	332.995220	1008.500551	-373.162525	342.572976	1034.466975	-345.751659	409.156655	959.628587	-378.651675	489.928600	891.676300	-365.160954	495.279482	865.355126	-264.438711	288.049376	581.898105	-407.193422	298.969568	584.737008	-331.699630	206.005302	555.827149	-372.875689	364.848258	481.679362	-431.823733	436.783198	809.540175	-393.808505	407.796173	727.477097	-394.238680	340.190607	670.193243	-400.861317	430.120020	711.847395	-366.356284	457.469478	482.948609	-362.197408	-64.331608	852.754876	-236.385621	21.085518	85.786063	-441.860676	21.209915	84.180610	-43.519416	
1256	6.2800	513.132224	1229.762515	-87.643905	449.885853	1231.194308	-450.533374	483.520980	1314.935781	-265.523679	461.602037	1181.933349	-263.535287	479.588573	1014.733504	48.345050	681.119972	906.698631	-35.497484	425.185357	978.737303	-566.128860	652.081900	909.783511	-468.847891	8.676311	1126.333215	-179.221819	117.924615	1159.834328	-344.166558	162.191667	1112.288349	-49.440566	168.867991	1106.411886	-328.744508	203.599312	1065.621879	-80.808165	42.684072	1149.970033	-121.219404	24.871428	1171.963787	-224.407102	133.618435	962.724383	-22.706514	116.639199	1067.699860	-393.174927	213.698335	852.388010	-36.520989	277.917640	792.465800	-44.966958	298.090549	706.951689	-61.655046	305.850373	809.544651	-62.044251	332.237283	616.396924	-97.273529	313.273172	601.878629	-195.224289	280.096866	531.584369	-64.948922	267.977611	443.858975	-78.861097	215.096938	373.963897	-75.922719	289.782738	437.551370	-112.247827	171.866025	281.320757	-73.134388	173.535512	288.406429	-150.645614	89.542602	285.630292	-113.199483	306.497971	134.270641	-130.548711	232.351437	164.392167	-62.123944	248.382735	1014.896921	-386.683135	331.651590	1006.442640	-374.645825	341.887460	1032.467924	-347.434347	407.176170	956.635060	-380.738862	488.331877	888.631579	-366.980775	494.102426	862.336527	-266.885901	292.712740	573.512352	-407.694248	303.609228	577.188823	-332.129789	210.986283	544.021731	-372.587469	373.019702	476.539031	-432.245924	435.921746	804.991122	-395.758360	409.161853	722.321238	-396.551507	342.580941	663.162056	-402.035300	431.314531	706.950360	-367.270690	465.548998	481.927569	-362.516251	-64.304402	852.768220	-236.316887	21.102961	85.807517	-441.854037	21.226012	84.168901	-43.485696	
